<?xml version="1.0" standalone="no"?>
<!DOCTYPE svg PUBLIC "-//W3C//DTD SVG 20010904//EN"
 "http://www.w3.org/TR/2001/REC-SVG-20010904/DTD/svg10.dtd">
<svg version="1.0" xmlns="http://www.w3.org/2000/svg"
 width="700.000000pt" height="700.000000pt" viewBox="0 0 700.000000 700.000000"
 preserveAspectRatio="xMidYMid meet">
<metadata>
Created by potrace 1.11, written by Peter Selinger 2001-2013
</metadata>
<g transform="translate(0.000000,700.000000) scale(0.100000,-0.100000)"
fill="#000000" stroke="none">
<path d="M0 3500 l0 -3500 3500 0 3500 0 0 3500 0 3500 -3500 0 -3500 0 0
-3500z m5339 2253 c86 -170 242 -320 393 -374 60 -22 71 -35 41 -46 -172 -58
-328 -197 -433 -385 -17 -32 -35 -58 -40 -58 -4 0 -29 39 -56 88 -69 123 -199
254 -309 308 -44 22 -90 43 -103 46 -12 3 -22 10 -22 15 1 4 45 29 98 55 147
70 279 203 361 366 12 23 26 42 31 42 5 0 23 -26 39 -57z m-2754 -127 c301
-53 575 -177 995 -447 403 -260 567 -321 728 -274 63 19 118 65 131 109 5 18
5 56 0 84 -24 153 -174 287 -401 357 -68 21 -88 31 -88 46 0 17 3 17 69 -1
150 -42 249 -93 336 -172 96 -88 136 -177 136 -303 -1 -143 -46 -262 -139
-365 -109 -121 -282 -200 -500 -230 -90 -13 -333 -9 -444 6 l-47 6 -17 -58
c-13 -41 -18 -89 -17 -159 3 -221 88 -405 286 -620 l56 -60 -21 65 c-26 83
-36 260 -18 339 44 198 212 322 439 323 175 1 305 -70 379 -207 25 -46 27 -59
27 -165 0 -106 -2 -119 -27 -167 -57 -106 -135 -166 -242 -183 -237 -38 -432
186 -361 416 16 48 33 78 88 147 53 67 9 104 -88 73 -169 -53 -249 -291 -179
-532 35 -121 93 -229 257 -477 222 -336 284 -486 294 -704 23 -491 -282 -919
-802 -1128 -214 -86 -393 -119 -640 -119 -148 0 -198 4 -282 22 -428 93 -779
324 -949 624 -144 253 -145 548 -3 829 38 77 102 175 243 374 105 148 128 195
133 275 4 56 2 70 -19 100 -81 121 -287 100 -430 -44 -67 -68 -129 -158 -187
-273 -30 -60 -45 -81 -56 -77 -19 8 -20 3 15 80 148 326 420 533 703 534 283
1 541 -190 627 -465 29 -89 31 -257 7 -355 -26 -102 -106 -251 -227 -425 -140
-202 -185 -277 -221 -375 -47 -129 -55 -275 -21 -385 33 -108 136 -232 242
-292 218 -124 547 -129 795 -13 250 116 379 318 378 590 -1 235 -78 401 -362
779 -182 241 -229 314 -286 434 -74 157 -100 302 -84 466 23 220 126 397 421
722 54 59 94 110 89 113 -4 3 -44 19 -87 35 -87 32 -188 77 -459 201 -459 211
-686 280 -913 280 -236 0 -421 -67 -500 -182 -46 -67 -63 -130 -63 -233 0
-110 24 -196 80 -281 135 -207 361 -301 656 -274 219 20 386 97 550 252 62 58
89 78 97 70 17 -17 -162 -190 -249 -241 -158 -93 -309 -133 -503 -133 -93 0
-145 6 -205 21 -323 83 -505 343 -505 721 0 503 388 870 1000 944 64 8 304 -3
385 -18z"/>
</g>
</svg>
