<?xml version="1.0" standalone="no"?>
<!DOCTYPE svg PUBLIC "-//W3C//DTD SVG 20010904//EN"
 "http://www.w3.org/TR/2001/REC-SVG-20010904/DTD/svg10.dtd">
<svg version="1.0" xmlns="http://www.w3.org/2000/svg"
 width="700.000000pt" height="700.000000pt" viewBox="0 0 700.000000 700.000000"
 preserveAspectRatio="xMidYMid meet">
<metadata>
Created by potrace 1.11, written by Peter Selinger 2001-2013
</metadata>
<g transform="translate(0.000000,700.000000) scale(0.100000,-0.100000)"
fill="#000000" stroke="none">
<path d="M4546 4837 c-39 -70 -139 -168 -204 -197 -29 -13 -52 -26 -51 -29 0
-3 27 -19 59 -34 70 -33 150 -110 192 -184 17 -29 33 -55 38 -58 4 -2 20 19
35 48 39 71 138 168 203 197 55 25 64 37 35 46 -83 27 -173 106 -227 198 -21
36 -41 66 -45 66 -3 0 -19 -24 -35 -53z"/>
<path d="M2685 4779 c-107 -17 -170 -36 -250 -76 -208 -104 -318 -271 -316
-483 1 -62 3 -78 17 -144 24 -111 118 -224 220 -264 98 -38 212 -48 304 -28 8
1 32 6 53 11 20 4 40 11 43 16 3 5 12 9 20 9 42 0 233 158 219 181 -4 5 -25
-10 -48 -34 -116 -119 -251 -171 -416 -162 -83 4 -144 20 -196 51 -113 66
-174 175 -168 297 4 83 45 152 112 186 50 26 172 48 246 44 147 -7 237 -37
580 -191 110 -49 217 -95 238 -102 43 -14 45 -20 15 -53 -13 -14 -39 -42 -58
-63 -51 -56 -135 -167 -166 -220 -87 -148 -78 -352 23 -521 20 -35 78 -119
129 -187 187 -252 227 -336 227 -481 -1 -67 -6 -104 -22 -145 -61 -161 -232
-262 -441 -261 -124 0 -224 36 -299 106 -68 63 -94 128 -95 231 -1 75 2 86 41
165 23 46 73 128 111 181 121 169 159 271 148 396 -10 124 -95 254 -200 308
-191 98 -413 32 -546 -161 -43 -63 -82 -147 -73 -156 4 -4 22 17 38 49 79 153
173 234 272 234 36 1 79 -21 91 -45 34 -65 15 -114 -103 -282 -131 -185 -175
-299 -169 -443 7 -214 156 -405 406 -521 193 -91 397 -112 627 -66 14 2 54 14
90 26 377 124 587 427 538 775 -12 83 -58 177 -168 342 -38 56 -69 105 -69
107 0 3 -11 22 -25 43 -60 91 -90 228 -71 320 9 42 51 106 81 123 81 46 126
26 81 -34 -45 -60 -55 -90 -50 -150 7 -99 73 -169 169 -179 81 -9 147 25 192
96 35 55 38 150 5 213 -41 79 -129 126 -232 126 -174 -1 -280 -122 -267 -301
3 -37 10 -80 16 -95 17 -43 14 -43 -29 4 -129 140 -192 322 -157 449 12 45 18
48 75 39 73 -11 228 -7 293 8 210 48 338 197 322 373 -11 113 -109 207 -269
255 -26 8 -50 12 -53 9 -9 -9 14 -22 69 -38 119 -35 223 -140 223 -226 0 -61
-41 -96 -125 -104 -88 -8 -134 14 -513 246 -157 96 -312 161 -450 189 -65 14
-227 18 -290 8z"/>
</g>
</svg>
