<?xml version="1.0" standalone="no"?>
<!DOCTYPE svg PUBLIC "-//W3C//DTD SVG 20010904//EN"
 "http://www.w3.org/TR/2001/REC-SVG-20010904/DTD/svg10.dtd">
<svg version="1.0" xmlns="http://www.w3.org/2000/svg"
 width="700.000000pt" height="700.000000pt" viewBox="0 0 700.000000 700.000000"
 preserveAspectRatio="xMidYMid meet">
<metadata>
Created by potrace 1.11, written by Peter Selinger 2001-2013
</metadata>
<g transform="translate(0.000000,700.000000) scale(0.100000,-0.100000)"
fill="#000000" stroke="none">
<path d="M6225 6961 c-14 -23 -30 -52 -35 -65 -13 -34 -76 -132 -133 -206
-131 -169 -303 -298 -489 -365 -26 -10 -49 -24 -53 -33 -3 -8 -4 -16 -3 -16 2
-1 30 -12 63 -25 261 -100 475 -300 622 -580 43 -83 52 -94 68 -81 7 6 30 44
51 85 141 273 387 498 629 575 74 24 69 49 -18 80 -245 89 -466 298 -615 580
-51 98 -55 100 -87 51z"/>
<path d="M1628 6735 c-2 -2 -41 -5 -88 -9 -47 -3 -95 -8 -106 -10 -12 -3 -39
-7 -60 -11 -88 -13 -112 -19 -204 -43 -271 -73 -497 -189 -700 -358 -256 -213
-417 -506 -459 -833 -10 -75 -8 -325 3 -391 3 -14 8 -43 11 -65 13 -76 57
-210 94 -290 93 -198 241 -350 438 -449 58 -29 181 -72 232 -81 19 -3 37 -8
41 -10 33 -20 378 -24 488 -5 37 6 81 13 97 16 107 18 297 92 415 163 141 84
239 169 348 300 57 68 60 75 44 87 -15 12 -25 5 -93 -64 -198 -202 -340 -295
-569 -371 -97 -33 -106 -35 -220 -53 -82 -13 -356 -17 -435 -6 -378 50 -683
305 -770 643 -23 87 -28 248 -11 337 44 233 235 401 516 454 14 2 34 6 45 9
91 20 400 27 510 12 193 -27 549 -137 768 -236 23 -11 71 -32 107 -46 56 -23
349 -156 560 -253 133 -61 418 -181 495 -207 44 -16 83 -31 87 -34 8 -7 -5
-22 -134 -164 -43 -46 -88 -97 -100 -113 -12 -16 -25 -31 -29 -34 -46 -37
-253 -310 -332 -437 -140 -227 -187 -390 -191 -658 -2 -131 8 -209 45 -341 57
-208 191 -450 402 -729 50 -66 96 -125 102 -131 5 -6 17 -21 25 -34 8 -12 47
-64 86 -116 241 -317 372 -555 434 -791 47 -180 47 -390 -1 -563 -98 -349
-386 -607 -783 -700 -136 -32 -215 -41 -366 -41 -584 -1 -1000 331 -1013 808
-8 264 79 477 352 863 227 321 315 472 366 625 28 83 29 87 46 175 13 64 16
255 6 320 -58 373 -321 682 -674 794 -110 34 -197 47 -312 46 -110 -1 -144 -5
-223 -25 -358 -91 -654 -364 -842 -775 l-48 -104 23 -19 23 -18 62 126 c158
318 352 527 545 586 169 51 320 12 397 -103 22 -34 27 -54 29 -113 1 -40 -4
-93 -12 -117 -30 -101 -117 -241 -305 -497 -196 -264 -320 -501 -379 -721 -80
-301 -47 -609 95 -895 233 -469 821 -867 1464 -994 58 -11 119 -23 135 -27 17
-4 143 -8 280 -9 200 -2 274 1 370 15 701 106 1270 432 1588 912 93 140 201
382 222 497 3 14 7 37 10 51 31 136 48 423 32 520 -3 14 -8 48 -12 75 -9 61
-54 220 -85 295 -51 129 -146 293 -323 559 -262 393 -329 511 -391 683 -52
144 -69 252 -63 382 11 195 59 319 167 426 51 52 78 70 121 83 91 29 141 32
169 9 38 -31 31 -71 -24 -128 -51 -54 -119 -183 -134 -256 -13 -63 -7 -164 14
-235 73 -254 331 -404 592 -346 276 61 443 348 378 650 -33 155 -153 306 -301
378 -95 46 -110 52 -150 60 -16 3 -41 8 -55 11 -14 2 -63 5 -110 5 -371 3
-623 -184 -696 -516 -12 -53 -14 -281 -4 -336 6 -30 13 -66 15 -81 5 -24 33
-116 50 -163 9 -23 -44 29 -125 125 -30 35 -64 75 -75 88 -136 160 -262 407
-300 587 -28 132 -36 260 -23 360 9 64 44 181 58 190 4 3 32 1 61 -4 69 -12
150 -22 219 -26 88 -6 384 -7 400 -1 8 2 44 7 80 11 36 3 111 17 166 31 332
81 583 254 698 483 68 134 91 233 90 396 -1 107 -5 140 -23 190 -89 245 -333
430 -690 521 -51 13 -97 24 -101 24 -4 0 -10 -11 -12 -24 -4 -22 0 -26 41 -36
264 -67 479 -185 595 -326 87 -106 139 -254 122 -345 -15 -79 -84 -151 -185
-191 -46 -18 -77 -22 -171 -23 -121 0 -147 5 -285 58 -144 54 -351 167 -575
313 -41 27 -83 53 -93 59 -9 5 -86 53 -170 106 -315 199 -507 303 -733 398
-361 151 -626 210 -966 215 -76 2 -139 2 -140 1z"/>
</g>
</svg>
